<mxfile host="65bd71144e">
    <diagram id="gfhM94zAySe--Fsyw81P" name="Page-1">
        <mxGraphModel dx="1301" dy="907" grid="1" gridSize="10" guides="1" tooltips="1" connect="1" arrows="1" fold="1" page="1" pageScale="1" pageWidth="1100" pageHeight="850" background="#bbb9b9" math="0" shadow="0">
            <root>
                <mxCell id="0"/>
                <mxCell id="1" parent="0"/>
                <mxCell id="3" value="&lt;font color=&quot;#000000&quot;&gt;Student Access Database&lt;/font&gt;" style="rounded=0;whiteSpace=wrap;html=1;fillColor=#7d7c7e;" vertex="1" parent="1">
                    <mxGeometry x="450" width="160" height="80" as="geometry"/>
                </mxCell>
                <mxCell id="4" value="class Student" style="rounded=0;whiteSpace=wrap;html=1;fontColor=#000000;fillColor=#7d7c7e;" vertex="1" parent="1">
                    <mxGeometry y="120" width="120" height="60" as="geometry"/>
                </mxCell>
                <mxCell id="5" value="Private: variables" style="rounded=0;whiteSpace=wrap;html=1;fontColor=#000000;fillColor=#7d7c7e;" vertex="1" parent="1">
                    <mxGeometry x="40" y="200" width="120" height="60" as="geometry"/>
                </mxCell>
                <mxCell id="6" value="Constructors / destructors" style="rounded=0;whiteSpace=wrap;html=1;fontColor=#000000;fillColor=#7d7c7e;" vertex="1" parent="1">
                    <mxGeometry x="40" y="280" width="120" height="60" as="geometry"/>
                </mxCell>
                <mxCell id="7" value="Member functions" style="rounded=0;whiteSpace=wrap;html=1;fontColor=#000000;fillColor=#7d7c7e;" vertex="1" parent="1">
                    <mxGeometry x="40" y="360" width="120" height="60" as="geometry"/>
                </mxCell>
                <mxCell id="8" value="Populate Array of Student[4]" style="rounded=0;whiteSpace=wrap;html=1;fontColor=#000000;fillColor=#7d7c7e;" vertex="1" parent="1">
                    <mxGeometry x="240" y="270" width="120" height="60" as="geometry"/>
                </mxCell>
                <mxCell id="9" value="Getter functions" style="rounded=0;whiteSpace=wrap;html=1;fontColor=#000000;fillColor=#7d7c7e;" vertex="1" parent="1">
                    <mxGeometry x="40" y="440" width="120" height="60" as="geometry"/>
                </mxCell>
                <mxCell id="10" value="tofile()" style="rounded=0;whiteSpace=wrap;html=1;fontColor=#000000;fillColor=#7d7c7e;" vertex="1" parent="1">
                    <mxGeometry x="260" y="120" width="120" height="60" as="geometry"/>
                </mxCell>
                <mxCell id="11" value="if is open" style="rounded=0;whiteSpace=wrap;html=1;fontColor=#000000;fillColor=#7d7c7e;" vertex="1" parent="1">
                    <mxGeometry x="190" y="200" width="120" height="60" as="geometry"/>
                </mxCell>
                <mxCell id="12" value="write to binary file()" style="rounded=0;whiteSpace=wrap;html=1;fontColor=#000000;fillColor=#7d7c7e;" vertex="1" parent="1">
                    <mxGeometry x="240" y="350" width="120" height="60" as="geometry"/>
                </mxCell>
                <mxCell id="13" value="else" style="rounded=0;whiteSpace=wrap;html=1;fontColor=#000000;fillColor=#7d7c7e;" vertex="1" parent="1">
                    <mxGeometry x="360" y="200" width="120" height="60" as="geometry"/>
                </mxCell>
                <mxCell id="14" value="studentlookup()" style="rounded=0;whiteSpace=wrap;html=1;fontColor=#000000;fillColor=#7d7c7e;" vertex="1" parent="1">
                    <mxGeometry x="500" y="120" width="120" height="60" as="geometry"/>
                </mxCell>
                <mxCell id="15" value="openfile" style="rounded=0;whiteSpace=wrap;html=1;fontColor=#000000;fillColor=#7d7c7e;" vertex="1" parent="1">
                    <mxGeometry x="540" y="200" width="120" height="60" as="geometry"/>
                </mxCell>
                <mxCell id="16" value="read into array" style="rounded=0;whiteSpace=wrap;html=1;fontColor=#000000;fillColor=#7d7c7e;" vertex="1" parent="1">
                    <mxGeometry x="540" y="270" width="120" height="60" as="geometry"/>
                </mxCell>
                <mxCell id="17" value="user input" style="rounded=0;whiteSpace=wrap;html=1;fontColor=#000000;fillColor=#7d7c7e;" vertex="1" parent="1">
                    <mxGeometry x="540" y="350" width="120" height="60" as="geometry"/>
                </mxCell>
                <mxCell id="18" value="search arrar" style="rounded=0;whiteSpace=wrap;html=1;fontColor=#000000;fillColor=#7d7c7e;" vertex="1" parent="1">
                    <mxGeometry x="570" y="425" width="120" height="60" as="geometry"/>
                </mxCell>
                <mxCell id="19" value="display results" style="rounded=0;whiteSpace=wrap;html=1;fontColor=#000000;fillColor=#7d7c7e;" vertex="1" parent="1">
                    <mxGeometry x="570" y="500" width="120" height="60" as="geometry"/>
                </mxCell>
                <mxCell id="20" value="User menu()" style="rounded=0;whiteSpace=wrap;html=1;fontColor=#000000;fillColor=#7d7c7e;" vertex="1" parent="1">
                    <mxGeometry x="910" y="120" width="120" height="60" as="geometry"/>
                </mxCell>
                <mxCell id="21" value="Displapy options" style="rounded=0;whiteSpace=wrap;html=1;fontColor=#000000;fillColor=#7d7c7e;" vertex="1" parent="1">
                    <mxGeometry x="950" y="200" width="120" height="60" as="geometry"/>
                </mxCell>
                <mxCell id="22" value="search by id&lt;br&gt;studentlookup()" style="rounded=0;whiteSpace=wrap;html=1;fontColor=#000000;fillColor=#7d7c7e;" vertex="1" parent="1">
                    <mxGeometry x="950" y="270" width="120" height="60" as="geometry"/>
                </mxCell>
                <mxCell id="23" value="display all students&lt;span style=&quot;color: rgba(0, 0, 0, 0); font-family: monospace; font-size: 0px; text-align: start;&quot;&gt;%3CmxGraphModel%3E%3Croot%3E%3CmxCell%20id%3D%220%22%2F%3E%3CmxCell%20id%3D%221%22%20parent%3D%220%22%2F%3E%3CmxCell%20id%3D%222%22%20value%3D%22search%20arrar%22%20style%3D%22rounded%3D0%3BwhiteSpace%3Dwrap%3Bhtml%3D1%3BfontColor%3D%23000000%3BfillColor%3D%237d7c7e%3B%22%20vertex%3D%221%22%20parent%3D%221%22%3E%3CmxGeometry%20x%3D%22630%22%20y%3D%22420%22%20width%3D%22120%22%20height%3D%2260%22%20as%3D%22geometry%22%2F%3E%3C%2FmxCell%3E%3C%2Froot%3E%3C%2FmxGraphModel%3E&lt;/span&gt;" style="rounded=0;whiteSpace=wrap;html=1;fontColor=#000000;fillColor=#7d7c7e;" vertex="1" parent="1">
                    <mxGeometry x="950" y="350" width="120" height="60" as="geometry"/>
                </mxCell>
                <mxCell id="24" value="edit user name" style="rounded=0;whiteSpace=wrap;html=1;fontColor=#000000;fillColor=#7d7c7e;" vertex="1" parent="1">
                    <mxGeometry x="950" y="425" width="120" height="60" as="geometry"/>
                </mxCell>
                <mxCell id="25" value="edit user name()" style="rounded=0;whiteSpace=wrap;html=1;fontColor=#000000;fillColor=#7d7c7e;" vertex="1" parent="1">
                    <mxGeometry x="710" y="120" width="120" height="60" as="geometry"/>
                </mxCell>
                <mxCell id="26" value="open file" style="rounded=0;whiteSpace=wrap;html=1;fontColor=#000000;fillColor=#7d7c7e;" vertex="1" parent="1">
                    <mxGeometry x="750" y="200" width="120" height="60" as="geometry"/>
                </mxCell>
                <mxCell id="27" value="search&amp;nbsp;" style="rounded=0;whiteSpace=wrap;html=1;fontColor=#000000;fillColor=#7d7c7e;" vertex="1" parent="1">
                    <mxGeometry x="750" y="270" width="120" height="60" as="geometry"/>
                </mxCell>
                <mxCell id="28" value="edit user name" style="rounded=0;whiteSpace=wrap;html=1;fontColor=#000000;fillColor=#7d7c7e;" vertex="1" parent="1">
                    <mxGeometry x="750" y="425" width="120" height="60" as="geometry"/>
                </mxCell>
                <mxCell id="29" value="compare" style="rounded=0;whiteSpace=wrap;html=1;fontColor=#000000;fillColor=#7d7c7e;" vertex="1" parent="1">
                    <mxGeometry x="750" y="350" width="120" height="60" as="geometry"/>
                </mxCell>
                <mxCell id="30" value="" style="endArrow=none;html=1;fontColor=#000000;strokeColor=#000000;" edge="1" parent="1">
                    <mxGeometry width="50" height="50" relative="1" as="geometry">
                        <mxPoint x="10" y="470" as="sourcePoint"/>
                        <mxPoint x="10" y="180" as="targetPoint"/>
                    </mxGeometry>
                </mxCell>
                <mxCell id="32" value="" style="endArrow=none;html=1;fontColor=#000000;strokeColor=#000000;exitX=0;exitY=0.5;exitDx=0;exitDy=0;" edge="1" parent="1" source="9">
                    <mxGeometry width="50" height="50" relative="1" as="geometry">
                        <mxPoint x="20" y="760" as="sourcePoint"/>
                        <mxPoint x="10" y="470" as="targetPoint"/>
                    </mxGeometry>
                </mxCell>
                <mxCell id="33" value="" style="endArrow=none;html=1;fontColor=#000000;strokeColor=#000000;exitX=0;exitY=0.5;exitDx=0;exitDy=0;" edge="1" parent="1">
                    <mxGeometry width="50" height="50" relative="1" as="geometry">
                        <mxPoint x="40" y="389.5" as="sourcePoint"/>
                        <mxPoint x="10" y="390" as="targetPoint"/>
                    </mxGeometry>
                </mxCell>
                <mxCell id="35" value="" style="endArrow=none;html=1;fontColor=#000000;strokeColor=#000000;exitX=0;exitY=0.5;exitDx=0;exitDy=0;" edge="1" parent="1">
                    <mxGeometry width="50" height="50" relative="1" as="geometry">
                        <mxPoint x="40" y="309.5" as="sourcePoint"/>
                        <mxPoint x="10" y="310" as="targetPoint"/>
                    </mxGeometry>
                </mxCell>
                <mxCell id="36" value="" style="endArrow=none;html=1;fontColor=#000000;strokeColor=#000000;exitX=0;exitY=0.5;exitDx=0;exitDy=0;" edge="1" parent="1">
                    <mxGeometry width="50" height="50" relative="1" as="geometry">
                        <mxPoint x="40" y="229.5" as="sourcePoint"/>
                        <mxPoint x="10" y="230" as="targetPoint"/>
                    </mxGeometry>
                </mxCell>
                <mxCell id="37" value="" style="endArrow=none;html=1;fontColor=#000000;strokeColor=#000000;" edge="1" parent="1">
                    <mxGeometry width="50" height="50" relative="1" as="geometry">
                        <mxPoint x="200" y="390" as="sourcePoint"/>
                        <mxPoint x="200" y="260" as="targetPoint"/>
                    </mxGeometry>
                </mxCell>
                <mxCell id="38" value="" style="endArrow=none;html=1;fontColor=#000000;strokeColor=#000000;" edge="1" parent="1">
                    <mxGeometry width="50" height="50" relative="1" as="geometry">
                        <mxPoint x="510" y="380" as="sourcePoint"/>
                        <mxPoint x="510" y="180" as="targetPoint"/>
                    </mxGeometry>
                </mxCell>
                <mxCell id="39" value="" style="endArrow=none;html=1;fontColor=#000000;strokeColor=#000000;" edge="1" parent="1">
                    <mxGeometry width="50" height="50" relative="1" as="geometry">
                        <mxPoint x="720" y="460" as="sourcePoint"/>
                        <mxPoint x="720" y="180" as="targetPoint"/>
                    </mxGeometry>
                </mxCell>
                <mxCell id="40" value="" style="endArrow=none;html=1;fontColor=#000000;strokeColor=#000000;" edge="1" parent="1">
                    <mxGeometry width="50" height="50" relative="1" as="geometry">
                        <mxPoint x="920" y="460" as="sourcePoint"/>
                        <mxPoint x="920" y="180" as="targetPoint"/>
                    </mxGeometry>
                </mxCell>
                <mxCell id="41" value="" style="endArrow=none;html=1;fontColor=#000000;strokeColor=#000000;" edge="1" parent="1">
                    <mxGeometry width="50" height="50" relative="1" as="geometry">
                        <mxPoint x="990" y="100" as="sourcePoint"/>
                        <mxPoint x="30" y="100" as="targetPoint"/>
                    </mxGeometry>
                </mxCell>
                <mxCell id="42" value="" style="endArrow=none;html=1;strokeColor=#000000;fontColor=#000000;exitX=0.5;exitY=0;exitDx=0;exitDy=0;" edge="1" parent="1" source="11">
                    <mxGeometry width="50" height="50" relative="1" as="geometry">
                        <mxPoint x="250" y="210" as="sourcePoint"/>
                        <mxPoint x="275" y="180" as="targetPoint"/>
                    </mxGeometry>
                </mxCell>
                <mxCell id="43" value="" style="endArrow=none;html=1;fontColor=#000000;strokeColor=#000000;exitX=0.25;exitY=0;exitDx=0;exitDy=0;" edge="1" parent="1" source="13">
                    <mxGeometry width="50" height="50" relative="1" as="geometry">
                        <mxPoint x="360" y="380" as="sourcePoint"/>
                        <mxPoint x="360" y="180" as="targetPoint"/>
                    </mxGeometry>
                </mxCell>
                <mxCell id="44" value="" style="endArrow=none;html=1;fontColor=#000000;strokeColor=#000000;exitX=0;exitY=0.5;exitDx=0;exitDy=0;" edge="1" parent="1">
                    <mxGeometry width="50" height="50" relative="1" as="geometry">
                        <mxPoint x="240" y="379.5" as="sourcePoint"/>
                        <mxPoint x="200" y="380" as="targetPoint"/>
                    </mxGeometry>
                </mxCell>
                <mxCell id="45" value="" style="endArrow=none;html=1;fontColor=#000000;strokeColor=#000000;exitX=0;exitY=0.5;exitDx=0;exitDy=0;" edge="1" parent="1">
                    <mxGeometry width="50" height="50" relative="1" as="geometry">
                        <mxPoint x="240" y="299.5" as="sourcePoint"/>
                        <mxPoint x="200" y="300" as="targetPoint"/>
                    </mxGeometry>
                </mxCell>
                <mxCell id="46" value="" style="endArrow=none;html=1;fontColor=#000000;strokeColor=#000000;exitX=0;exitY=0.5;exitDx=0;exitDy=0;" edge="1" parent="1">
                    <mxGeometry width="50" height="50" relative="1" as="geometry">
                        <mxPoint x="540" y="229.5" as="sourcePoint"/>
                        <mxPoint x="510" y="230" as="targetPoint"/>
                    </mxGeometry>
                </mxCell>
                <mxCell id="47" value="" style="endArrow=none;html=1;fontColor=#000000;strokeColor=#000000;exitX=0;exitY=0.5;exitDx=0;exitDy=0;" edge="1" parent="1">
                    <mxGeometry width="50" height="50" relative="1" as="geometry">
                        <mxPoint x="540" y="299.5" as="sourcePoint"/>
                        <mxPoint x="510" y="300" as="targetPoint"/>
                    </mxGeometry>
                </mxCell>
                <mxCell id="48" value="" style="endArrow=none;html=1;fontColor=#000000;strokeColor=#000000;exitX=0;exitY=0.5;exitDx=0;exitDy=0;" edge="1" parent="1">
                    <mxGeometry width="50" height="50" relative="1" as="geometry">
                        <mxPoint x="540" y="379.5" as="sourcePoint"/>
                        <mxPoint x="510" y="380" as="targetPoint"/>
                    </mxGeometry>
                </mxCell>
                <mxCell id="49" value="" style="endArrow=none;html=1;fontColor=#000000;strokeColor=#000000;exitX=0;exitY=0.5;exitDx=0;exitDy=0;" edge="1" parent="1">
                    <mxGeometry width="50" height="50" relative="1" as="geometry">
                        <mxPoint x="750" y="230" as="sourcePoint"/>
                        <mxPoint x="720" y="231" as="targetPoint"/>
                    </mxGeometry>
                </mxCell>
                <mxCell id="50" value="" style="endArrow=none;html=1;fontColor=#000000;strokeColor=#000000;exitX=0;exitY=0.5;exitDx=0;exitDy=0;" edge="1" parent="1">
                    <mxGeometry width="50" height="50" relative="1" as="geometry">
                        <mxPoint x="750" y="299.5" as="sourcePoint"/>
                        <mxPoint x="720" y="300" as="targetPoint"/>
                    </mxGeometry>
                </mxCell>
                <mxCell id="51" value="" style="endArrow=none;html=1;fontColor=#000000;strokeColor=#000000;exitX=0;exitY=0.5;exitDx=0;exitDy=0;" edge="1" parent="1">
                    <mxGeometry width="50" height="50" relative="1" as="geometry">
                        <mxPoint x="750" y="379.5" as="sourcePoint"/>
                        <mxPoint x="720" y="380" as="targetPoint"/>
                    </mxGeometry>
                </mxCell>
                <mxCell id="52" value="" style="endArrow=none;html=1;fontColor=#000000;strokeColor=#000000;exitX=0;exitY=0.5;exitDx=0;exitDy=0;" edge="1" parent="1">
                    <mxGeometry width="50" height="50" relative="1" as="geometry">
                        <mxPoint x="750" y="460" as="sourcePoint"/>
                        <mxPoint x="720" y="461" as="targetPoint"/>
                    </mxGeometry>
                </mxCell>
                <mxCell id="53" value="" style="endArrow=none;html=1;fontColor=#000000;strokeColor=#000000;exitX=0;exitY=0.5;exitDx=0;exitDy=0;" edge="1" parent="1">
                    <mxGeometry width="50" height="50" relative="1" as="geometry">
                        <mxPoint x="950" y="229.5" as="sourcePoint"/>
                        <mxPoint x="920" y="230" as="targetPoint"/>
                    </mxGeometry>
                </mxCell>
                <mxCell id="54" value="" style="endArrow=none;html=1;fontColor=#000000;strokeColor=#000000;exitX=0;exitY=0.5;exitDx=0;exitDy=0;" edge="1" parent="1">
                    <mxGeometry width="50" height="50" relative="1" as="geometry">
                        <mxPoint x="950" y="300" as="sourcePoint"/>
                        <mxPoint x="920" y="301" as="targetPoint"/>
                    </mxGeometry>
                </mxCell>
                <mxCell id="55" value="" style="endArrow=none;html=1;fontColor=#000000;strokeColor=#000000;exitX=0;exitY=0.5;exitDx=0;exitDy=0;" edge="1" parent="1">
                    <mxGeometry width="50" height="50" relative="1" as="geometry">
                        <mxPoint x="950" y="379.5" as="sourcePoint"/>
                        <mxPoint x="920" y="380" as="targetPoint"/>
                    </mxGeometry>
                </mxCell>
                <mxCell id="56" value="" style="endArrow=none;html=1;fontColor=#000000;strokeColor=#000000;exitX=0;exitY=0.5;exitDx=0;exitDy=0;" edge="1" parent="1">
                    <mxGeometry width="50" height="50" relative="1" as="geometry">
                        <mxPoint x="950" y="460" as="sourcePoint"/>
                        <mxPoint x="920" y="461" as="targetPoint"/>
                    </mxGeometry>
                </mxCell>
                <mxCell id="57" value="" style="endArrow=none;html=1;strokeColor=#000000;fontColor=#000000;" edge="1" parent="1">
                    <mxGeometry width="50" height="50" relative="1" as="geometry">
                        <mxPoint x="30" y="120" as="sourcePoint"/>
                        <mxPoint x="50" y="100" as="targetPoint"/>
                    </mxGeometry>
                </mxCell>
                <mxCell id="59" value="" style="endArrow=none;html=1;strokeColor=#000000;fontColor=#000000;exitX=0.39;exitY=-0.008;exitDx=0;exitDy=0;exitPerimeter=0;" edge="1" parent="1" source="10">
                    <mxGeometry width="50" height="50" relative="1" as="geometry">
                        <mxPoint x="275" y="150" as="sourcePoint"/>
                        <mxPoint x="325" y="100" as="targetPoint"/>
                    </mxGeometry>
                </mxCell>
                <mxCell id="60" value="" style="endArrow=none;html=1;strokeColor=#000000;fontColor=#000000;" edge="1" parent="1">
                    <mxGeometry width="50" height="50" relative="1" as="geometry">
                        <mxPoint x="540" y="120" as="sourcePoint"/>
                        <mxPoint x="560" y="100" as="targetPoint"/>
                    </mxGeometry>
                </mxCell>
                <mxCell id="61" value="" style="endArrow=none;html=1;strokeColor=#000000;fontColor=#000000;" edge="1" parent="1">
                    <mxGeometry width="50" height="50" relative="1" as="geometry">
                        <mxPoint x="760" y="120" as="sourcePoint"/>
                        <mxPoint x="780" y="100" as="targetPoint"/>
                    </mxGeometry>
                </mxCell>
                <mxCell id="62" value="" style="endArrow=none;html=1;strokeColor=#000000;fontColor=#000000;" edge="1" parent="1">
                    <mxGeometry width="50" height="50" relative="1" as="geometry">
                        <mxPoint x="960" y="120" as="sourcePoint"/>
                        <mxPoint x="980" y="100" as="targetPoint"/>
                    </mxGeometry>
                </mxCell>
            </root>
        </mxGraphModel>
    </diagram>
</mxfile>